<svg id="Layer_1" data-name="Layer 1" xmlns="http://www.w3.org/2000/svg" viewBox="0 0 183.77 25.88"><defs><style>.cls-1{fill:#f28e00;}.cls-2{fill:#fff;}</style></defs><title>Logo_Webbouwers_white</title><path class="cls-1" d="M141.43,20.45h3V17.23h-3v3.22Zm7.5-11.78a4.33,4.33,0,0,0-1.78.91,6,6,0,0,0-1.86,4.81,6.34,6.34,0,0,0,1.54,4.39,4.52,4.52,0,0,0,1.9,1.3,9.07,9.07,0,0,0,2.89.37h4.53V17.87h-3.58a7.67,7.67,0,0,1-1.62-.13,2.9,2.9,0,0,1-1.08-.5,3.23,3.23,0,0,1-1.21-2.82,3.81,3.81,0,0,1,.74-2.56,3.55,3.55,0,0,1,2.77-.89h4V8.39h-4.53A10.93,10.93,0,0,0,148.93,8.67ZM163,8.21a6.26,6.26,0,0,0-4.84,1.91,6.07,6.07,0,0,0-1.51,4.22,6.2,6.2,0,0,0,1.57,4.56A6.37,6.37,0,0,0,163,20.63a6.53,6.53,0,0,0,4.6-1.55,5.81,5.81,0,0,0,1.83-4.51,6.71,6.71,0,0,0-1.46-4.42A6,6,0,0,0,163,8.21Zm0,9.88a2.74,2.74,0,0,1-2.52-1.33,4.43,4.43,0,0,1-.48-2.3q0-3.71,3-3.71t3,3.65Q166,18.09,163.07,18.09Zm23.72-8.58a3,3,0,0,0-1.44-.87,10,10,0,0,0-2.53-.24H170.64V20.45h3.31V11h3.56v9.48h3.31V11h1.76a2.16,2.16,0,0,1,1.56.5,1.33,1.33,0,0,1,.34.62,6.25,6.25,0,0,1,.08,1.21v7.16h3.31V12.77A4.64,4.64,0,0,0,186.79,9.51Z" transform="translate(-4.1 -3.95)"/><path class="cls-2" d="M7.46,24.4a3.06,3.06,0,0,0-.95-0.1H4.1v5.5h1V27.86H6.78a2.19,2.19,0,0,0,.67-0.08,1.19,1.19,0,0,0,.46-0.3,1.64,1.64,0,0,0,.38-0.62,2.37,2.37,0,0,0,.13-0.79,2.11,2.11,0,0,0-.21-0.93A1.42,1.42,0,0,0,7.46,24.4Zm-0.4,2.36a0.8,0.8,0,0,1-.53.14H5.13V25.26H6.55a1,1,0,0,1,.39.06,0.7,0.7,0,0,1,.35.71A0.93,0.93,0,0,1,7.06,26.75Zm6.16-2.46-2,5.5h1.21l0.47-1.28h1.84l0.47,1.28h1.21l-2-5.5H13.22Zm-0.09,3.25,0.69-1.93,0.69,1.93H13.12Zm11.13,0.88A1.9,1.9,0,0,0,24.13,28a1.19,1.19,0,0,0-.27-0.38,1.42,1.42,0,0,0-.43-0.24A1.38,1.38,0,0,0,24,27a1.85,1.85,0,0,0,.35-1.21,1.65,1.65,0,0,0-.15-0.72,1.33,1.33,0,0,0-.42-0.52,2.54,2.54,0,0,0-1.43-.29H20v5.5h1V27.7h0.83a1.51,1.51,0,0,1,.82.17,0.89,0.89,0,0,1,.34.4,2.46,2.46,0,0,1,.16.74,5.44,5.44,0,0,0,.11.78h1.16A4.25,4.25,0,0,1,24.32,29,4.09,4.09,0,0,0,24.26,28.42ZM23,26.6a0.87,0.87,0,0,1-.52.12H21V25.26h1.45a1.13,1.13,0,0,1,.4.05,0.62,0.62,0,0,1,.35.65A0.78,0.78,0,0,1,23,26.6Zm4.8-1.34h1.54v4.53h1V25.26H32v-1H27.8v1Zm11,3.13-1.93-4.1H35.57v5.5h1v-4l2,4h1.26v-5.5h-1v4.1Zm6.12-4a1.51,1.51,0,0,0-.57.38A3.06,3.06,0,0,0,43.58,27a3.44,3.44,0,0,0,.55,2.06,1.61,1.61,0,0,0,1,.65,5.34,5.34,0,0,0,1,.08h1.34v-1h-1.3a1.59,1.59,0,0,1-1.06-.28,1.45,1.45,0,0,1-.36-1h2.72v-1H44.76A3.61,3.61,0,0,1,44.83,26,1,1,0,0,1,45,25.67a0.8,0.8,0,0,1,.4-0.32,2.59,2.59,0,0,1,.77-0.08h1.34v-1H45.74A2.5,2.5,0,0,0,44.93,24.4Zm10.69,4A1.81,1.81,0,0,0,55.49,28a1.18,1.18,0,0,0-.26-0.38,1.42,1.42,0,0,0-.43-0.24A1.37,1.37,0,0,0,55.38,27a1.83,1.83,0,0,0,.35-1.21,1.68,1.68,0,0,0-.15-0.72,1.34,1.34,0,0,0-.42-0.52,2.54,2.54,0,0,0-1.42-.29H51.37v5.5h1V27.7h0.83a1.52,1.52,0,0,1,.82.17,0.89,0.89,0,0,1,.34.4,2.43,2.43,0,0,1,.16.74,5.66,5.66,0,0,0,.11.78H55.8A4.3,4.3,0,0,1,55.68,29,4.72,4.72,0,0,0,55.62,28.42ZM54.37,26.6a0.86,0.86,0,0,1-.52.12H52.4V25.26h1.45a1.13,1.13,0,0,1,.4.05,0.62,0.62,0,0,1,.35.65A0.78,0.78,0,0,1,54.37,26.6Zm10.14,3.19h1v-5.5h-1v5.5Zm8.33-1.4-1.93-4.1H69.59v5.5h1v-4l2,4h1.27v-5.5h-1v4.1Zm14.85,0-1-4.14H85.52l-1,4.14-1.09-4.14H82.35l1.57,5.5h1.17l1-4,1,4h1.17l1.57-5.5H88.77Zm6.89-4a1.52,1.52,0,0,0-.57.38A3.06,3.06,0,0,0,93.23,27a3.43,3.43,0,0,0,.55,2.06,1.6,1.6,0,0,0,1,.65,5.31,5.31,0,0,0,1,.08h1.34v-1h-1.3a1.58,1.58,0,0,1-1.06-.28,1.45,1.45,0,0,1-.36-1h2.72v-1H94.41A4.05,4.05,0,0,1,94.47,26a1,1,0,0,1,.15-0.33,0.78,0.78,0,0,1,.4-0.32,2.57,2.57,0,0,1,.77-0.08h1.34v-1H95.39A2.53,2.53,0,0,0,94.58,24.4Zm10.55,2.14a1.71,1.71,0,0,0,.08-1.44,1.23,1.23,0,0,0-.51-0.64,2,2,0,0,0-.93-0.16H101v5.5h2.68a2.64,2.64,0,0,0,.91-0.12,1,1,0,0,0,.5-0.43,1.71,1.71,0,0,0,.22-0.9,1.34,1.34,0,0,0-.7-1.3A1.12,1.12,0,0,0,105.13,26.54ZM104,28.69a0.48,0.48,0,0,1-.19.11,1.44,1.44,0,0,1-.32,0H102V27.53h1.43a0.88,0.88,0,0,1,.51.11,0.58,0.58,0,0,1,.21.5A0.69,0.69,0,0,1,104,28.69Zm0-2.26a0.47,0.47,0,0,1-.2.11,1.33,1.33,0,0,1-.32,0H102V25.26h1.43a0.87,0.87,0,0,1,.51.12,0.58,0.58,0,0,1,.21.5A0.69,0.69,0,0,1,104,26.42Zm4.73-1.16h1.54v4.53h1V25.26h1.59v-1h-4.17v1Zm8.85-.87a1.51,1.51,0,0,0-.57.38,3.06,3.06,0,0,0-.78,2.24,3.42,3.42,0,0,0,.55,2.06,1.59,1.59,0,0,0,1,.65,5.3,5.3,0,0,0,1,.08h1.34v-1h-1.3a1.58,1.58,0,0,1-1.06-.28,1.44,1.44,0,0,1-.37-1h2.72v-1h-2.72a4,4,0,0,1,.07-0.57,1,1,0,0,1,.15-0.33,0.79,0.79,0,0,1,.4-0.32,2.57,2.57,0,0,1,.77-0.08h1.34v-1h-1.74A2.52,2.52,0,0,0,117.54,24.4Zm7.28,0.13a1.69,1.69,0,0,0-.73.73,3.77,3.77,0,0,0-.38,1.81,4.22,4.22,0,0,0,.25,1.55,1.73,1.73,0,0,0,1.27,1.14,3.89,3.89,0,0,0,.74.05h1.69v-1h-1.48a1.31,1.31,0,0,1-.91-0.26,2.23,2.23,0,0,1-.42-1.61,2.18,2.18,0,0,1,.27-1.26,1.21,1.21,0,0,1,1-.42h1.52v-1H126A2.64,2.64,0,0,0,124.82,24.52Zm9.47,2h-1.87V24.29h-1v5.5h1V27.5h1.87v2.29h1v-5.5h-1v2.24Zm8.33,1.86-1.93-4.1h-1.32v5.5h1v-4l2,4h1.27v-5.5h-1v4.1ZM151,24.53a2.74,2.74,0,0,0-1.28-.28,2.4,2.4,0,0,0-1.71.57,3,3,0,0,0-.69,2.24,3.79,3.79,0,0,0,.27,1.5,1.85,1.85,0,0,0,.78.91,2.85,2.85,0,0,0,1.43.35A2.64,2.64,0,0,0,151,29.6a1.84,1.84,0,0,0,1-1,3.86,3.86,0,0,0,.25-1.46,4.66,4.66,0,0,0-.21-1.46A1.83,1.83,0,0,0,151,24.53Zm-0.32,3.91a1.06,1.06,0,0,1-.95.45,1.09,1.09,0,0,1-1-.45,2.61,2.61,0,0,1-.3-1.42,2.71,2.71,0,0,1,.24-1.32,1.11,1.11,0,0,1,1-.53,1.07,1.07,0,0,1,1,.54A2.82,2.82,0,0,1,151,27,2.53,2.53,0,0,1,150.72,28.44Zm6.56,0.24a0.63,0.63,0,0,1-.32-0.51c0-.13,0-0.39,0-0.79V24.29h-1v3.09a5.87,5.87,0,0,0,.08,1.16,1.49,1.49,0,0,0,1,1.16,4.36,4.36,0,0,0,1.13.1h1.09v-1h-1A2.2,2.2,0,0,1,157.29,28.68Zm8.88-4.15a2.76,2.76,0,0,0-1.28-.28,2.39,2.39,0,0,0-1.71.57,3,3,0,0,0-.69,2.24,3.76,3.76,0,0,0,.27,1.5,1.84,1.84,0,0,0,.78.91,2.84,2.84,0,0,0,1.42.35,2.65,2.65,0,0,0,1.11-.22,1.83,1.83,0,0,0,1-1,3.8,3.8,0,0,0,.25-1.46,4.65,4.65,0,0,0-.21-1.46A1.85,1.85,0,0,0,166.16,24.53Zm-0.32,3.91a1.24,1.24,0,0,1-1.91,0,2.56,2.56,0,0,1-.31-1.42,2.71,2.71,0,0,1,.24-1.32,1.1,1.1,0,0,1,1-.53,1.06,1.06,0,0,1,1,.54,2.83,2.83,0,0,1,.25,1.32A2.57,2.57,0,0,1,165.84,28.44Zm6.06-3.91a1.68,1.68,0,0,0-.73.76,3.89,3.89,0,0,0-.36,1.78,3,3,0,0,0,.76,2.3,1.54,1.54,0,0,0,.6.33,3.35,3.35,0,0,0,.89.09h2.17V26.53h-2.38v1h1.35v1.32h-0.93a1.87,1.87,0,0,1-.6-0.08,0.81,0.81,0,0,1-.38-0.27,1.48,1.48,0,0,1-.25-0.6,4.32,4.32,0,0,1-.09-0.91,2,2,0,0,1,.35-1.37,1.21,1.21,0,0,1,.94-0.33h2v-1h-2.11A2.65,2.65,0,0,0,171.9,24.53Zm7.26,5.26h1v-5.5h-1v5.5Zm6.2-4.12a0.79,0.79,0,0,1,.4-0.32,2.61,2.61,0,0,1,.77-0.08h1.34v-1h-1.74a2.5,2.5,0,0,0-.81.11,1.5,1.5,0,0,0-.57.38A3.07,3.07,0,0,0,184,27a3.42,3.42,0,0,0,.55,2.06,1.6,1.6,0,0,0,1,.65,5.34,5.34,0,0,0,1,.08h1.34v-1h-1.3a1.59,1.59,0,0,1-1.06-.28,1.45,1.45,0,0,1-.37-1h2.72v-1h-2.72a4.52,4.52,0,0,1,.07-0.57A1.06,1.06,0,0,1,185.37,25.67Z" transform="translate(-4.1 -3.95)"/><path class="cls-2" d="M18,17.87H14.46V8.39H11.15v9.48H9.38a2.14,2.14,0,0,1-1.55-.5,1.31,1.31,0,0,1-.34-0.62,6.22,6.22,0,0,1-.08-1.22V8.39H4.1v7.68a4.65,4.65,0,0,0,1.09,3.26,3,3,0,0,0,1.44.87,10,10,0,0,0,2.53.24H21.34V8.39H18v9.48Zm7.54-9a4.51,4.51,0,0,0-1.91,1.58,6.39,6.39,0,0,0-1.16,3.82,6,6,0,0,0,2.19,5.05,5.11,5.11,0,0,0,1.71.87,8.85,8.85,0,0,0,2.34.25h4.41V17.87h-4a3.7,3.7,0,0,1-2.17-.5,2.19,2.19,0,0,1-.77-1.68h7V13.12h-7a2.45,2.45,0,0,1,.67-1.69,3,3,0,0,1,1.9-.46h4.41V8.39H28.49A7.58,7.58,0,0,0,25.57,8.87ZM44,9a7.15,7.15,0,0,0-3.14-.59H37.89V3.95H34.58v16.5H40a13.12,13.12,0,0,0,2.53-.19,5.32,5.32,0,0,0,1.72-.7,5.77,5.77,0,0,0,2.66-5.31,7,7,0,0,0-.53-2.77A4.87,4.87,0,0,0,44,9ZM42.68,16.9a2.82,2.82,0,0,1-2.34,1H37.89V11h2.45q3.15,0,3.15,3.38A4,4,0,0,1,42.68,16.9ZM57.25,9a7.16,7.16,0,0,0-3.14-.59H51.17V3.95H47.86v16.5h5.39a13.12,13.12,0,0,0,2.53-.19,5.3,5.3,0,0,0,1.72-.7,5.76,5.76,0,0,0,2.66-5.31,7,7,0,0,0-.53-2.77A4.88,4.88,0,0,0,57.25,9ZM56,16.9a2.82,2.82,0,0,1-2.34,1H51.17V11h2.45q3.15,0,3.15,3.38A4,4,0,0,1,56,16.9ZM67.23,8.21a6.27,6.27,0,0,0-4.84,1.91,6.08,6.08,0,0,0-1.51,4.22,6.2,6.2,0,0,0,1.57,4.56,6.37,6.37,0,0,0,4.74,1.73,6.53,6.53,0,0,0,4.6-1.55,5.81,5.81,0,0,0,1.84-4.51,6.71,6.71,0,0,0-1.46-4.42A6,6,0,0,0,67.23,8.21Zm0,9.88a2.74,2.74,0,0,1-2.53-1.33,4.44,4.44,0,0,1-.48-2.3q0-3.71,3-3.71t3,3.65Q70.23,18.09,67.28,18.09Zm15.44-.22H79.6a1.51,1.51,0,0,1-1.17-.46A1.81,1.81,0,0,1,78,16.14V8.39H74.69V15.8A4.73,4.73,0,0,0,76,19.48a3.24,3.24,0,0,0,1.37.76,8.88,8.88,0,0,0,2.19.21H86V8.39H82.72v9.48Zm18.69,0H97.85V8.39H94.54v9.48H92.76a2.13,2.13,0,0,1-1.54-.5,1.31,1.31,0,0,1-.35-0.62,6.27,6.27,0,0,1-.08-1.22V8.39H87.48v7.68a4.65,4.65,0,0,0,1.09,3.26A3,3,0,0,0,90,20.2a10,10,0,0,0,2.53.24h12.18V8.39h-3.31v9.48Zm7.55-9A4.49,4.49,0,0,0,107,10.45a6.39,6.39,0,0,0-1.16,3.82,6,6,0,0,0,2.19,5.05,5.1,5.1,0,0,0,1.71.87,8.85,8.85,0,0,0,2.34.25h4.41V17.87h-4a3.7,3.7,0,0,1-2.17-.5,2.19,2.19,0,0,1-.77-1.68h7V13.12h-7a2.45,2.45,0,0,1,.67-1.69,3,3,0,0,1,1.9-.46h4.41V8.39h-4.65A7.57,7.57,0,0,0,109,8.87Zm17.69,0.45a3.12,3.12,0,0,0-1.38-.71,10.14,10.14,0,0,0-2.32-.21H118V20.45h3.31V11h1a2.37,2.37,0,0,1,1.7.47,2.54,2.54,0,0,1,.45,1.75v0.65h3.18V12.66a7.82,7.82,0,0,0-.22-2.12A2.63,2.63,0,0,0,126.64,9.31Zm12.1,4.7a4.85,4.85,0,0,0-3-.81h-2a3.81,3.81,0,0,1-1.61-.19,1.09,1.09,0,0,1-.54-1,0.9,0.9,0,0,1,.57-1,5.08,5.08,0,0,1,1.28-.1h5.87V8.39h-7.08a4.49,4.49,0,0,0-2.74.63,3.5,3.5,0,0,0-1.32,2.88,4.1,4.1,0,0,0,.39,1.78A3.31,3.31,0,0,0,129.69,15a3.24,3.24,0,0,0,1.18.53,8.57,8.57,0,0,0,1.8.14h2a4,4,0,0,1,1.45.16,1,1,0,0,1,.58,1,0.89,0.89,0,0,1-.88,1q-0.4,0-1.5,0h-5.9v2.58h6.85a8.58,8.58,0,0,0,2.6-.28A2.7,2.7,0,0,0,139.22,19a4.29,4.29,0,0,0,.72-2.41A3.06,3.06,0,0,0,138.74,14Z" transform="translate(-4.1 -3.95)"/></svg>