<svg id="Laag_1" data-name="Laag 1" xmlns="http://www.w3.org/2000/svg" xmlns:xlink="http://www.w3.org/1999/xlink" viewBox="0 0 295.98 289.18"><defs><style>.cls-1{fill:none;}.cls-2{fill:#fff;}.cls-3{fill:#343333;}.cls-4{clip-path:url(#clip-path);}.cls-5{fill:#121212;}.cls-6{fill:#e52513;}</style><clipPath id="clip-path" transform="translate(-351.94 -105)"><rect class="cls-1" x="352" y="105" width="295.92" height="290"/></clipPath></defs><title>kim</title><path class="cls-2" d="M639,222.5C639,285.18,577,336,500.5,336c-9.4,0-22.79-9.92-27.45-2.23S462,368.41,453.74,365.6c-10-3.41-28-41.58-34.48-51.16C396.7,281,362,260.31,362,222.5,362,159.82,424,109,500.5,109S639,159.82,639,222.5Z" transform="translate(-351.94 -105)"/><path class="cls-3" d="M437.93,228.34l5.92-7.57,13.94-15.15h15.32l-19.78,21.61,21,28.2H458.64L444.3,235.24l-5.84,4.68v15.5H424.87V186.11h13.59V217l-0.71,11.32h0.18Z" transform="translate(-351.94 -105)"/><path class="cls-3" d="M495,255.42H481.45V205.62H495v49.81Z" transform="translate(-351.94 -105)"/><path class="cls-3" d="M553.89,255.42H540.3V226.33q0-5.39-1.8-8.09a6.35,6.35,0,0,0-5.68-2.7q-5.21,0-7.57,3.83T522.88,232v23.43H509.29V205.62h10.38L521.5,212h0.76a13.8,13.8,0,0,1,5.79-5.37,18.8,18.8,0,0,1,8.69-1.94q11.18,0,15.15,7.31h1.2a13.46,13.46,0,0,1,5.9-5.39,19.68,19.68,0,0,1,8.8-1.92q8.46,0,12.81,4.34t4.34,13.92v32.48H571.3V226.33q0-5.39-1.8-8.09a6.35,6.35,0,0,0-5.68-2.7q-5,0-7.46,3.56t-2.47,11.32v25Z" transform="translate(-351.94 -105)"/><g class="cls-4"><path class="cls-5" d="M396.07,139.91c-28.46,23-44.13,53.8-44.13,86.68,0,31.4,14.39,61,40.57,83.7l53.37,79.46a10,10,0,0,0,8.3,4.43h0.23a10,10,0,0,0,8.32-4.81l25.21-41.57c4,0.26,8,.39,12,0.39,39.14,0,76-12.39,103.86-34.91,28.46-23,44.13-53.8,44.13-86.68s-15.67-63.67-44.13-86.68C576,117.4,539.07,105,499.93,105s-76,12.4-103.86,34.91h0ZM407.2,296.53c-22.74-19-35.26-43.83-35.26-69.94,0-56,57.42-101.59,128-101.59s128,45.57,128,101.59-57.41,101.59-128,101.59a162.65,162.65,0,0,1-16.33-.82c-0.34,0-.68-0.05-1-0.05a10,10,0,0,0-8.55,4.82l-20.3,33.47L407.2,296.53h0Zm0,0" transform="translate(-351.94 -105)"/></g><circle class="cls-6" cx="136.31" cy="85.5" r="8.67"/></svg>